<?xml version="1.0" standalone="no"?>
<!DOCTYPE svg PUBLIC "-//W3C//DTD SVG 20010904//EN"
 "http://www.w3.org/TR/2001/REC-SVG-20010904/DTD/svg10.dtd">
<svg version="1.0" xmlns="http://www.w3.org/2000/svg" width="346.000000pt" height="346.000000pt" viewBox="0 0 346.000000 346.000000" preserveAspectRatio="xMidYMid meet">
    <defs>
        <mask id="mask">
            <rect x="0" y="0" width="100%" height="100%" fill="white"/>
            <rect x="0" y="0" width="100%" height="100%" fill="black"/>
        </mask>
    </defs>
    <g transform="translate(0.000000,346.000000) scale(0.100000,-0.100000)" fill="#0073fb" stroke="none">
        <path d="M1568 3449 c-681 -66 -1263 -529 -1477 -1177 -204 -617 -42 -1302
419 -1762 515 -515 1301 -652 1955 -341 370 176 650 456 826 826 311 655 174
1441 -341 1955 -289 289 -657 460 -1075 500 -123 11 -181 11 -307 -1z m-503
-1099 l0 -485 -181 -3 -181 -2 -8 479 c-4 264 -4 484 0 490 4 8 63 11 188 9
l182 -3 0 -485z m1655 180 l0 -310 -175 0 -175 0 0 109 c0 60 -3 116 -6 125
-5 14 -58 16 -490 16 l-484 0 -1 165 c-1 91 -2 171 -3 178 -1 15 236 22 887
25 l447 2 0 -310z m0 -1370 l0 -730 -172 2 -173 3 -3 548 -2 547 -490 0 -490
0 0 180 0 180 665 0 665 0 0 -730z m-1652 -7 l2 -363 483 -2 482 -3 3 -177 2
-178 -670 0 -670 0 0 545 0 545 183 -2 182 -3 3 -362z"/>
    </g>
</svg>