<?xml version="1.0" standalone="no"?>
<!DOCTYPE svg PUBLIC "-//W3C//DTD SVG 20010904//EN"
 "http://www.w3.org/TR/2001/REC-SVG-20010904/DTD/svg10.dtd">
<svg version="1.0" xmlns="http://www.w3.org/2000/svg" width="1024.000000pt" height="1024.000000pt" viewBox="0 0 1024.000000 1024.000000" preserveAspectRatio="xMidYMid meet"><!-- Have background be transparent -->
    <defs>
        <mask id="mask">
            <rect x="0" y="0" width="100%" height="100%" fill="white"/>
            <rect x="0" y="0" width="100%" height="100%" fill="black"/>
        </mask>
    </defs>
    <g transform="translate(0.000000,1024.000000) scale(0.100000,-0.100000)" fill="#0073fb" stroke="none">
        <path d="M760 4918 c0 -2306 0 -2362 19 -2343 10 11 78 85 151 165 73 80 146
159 161 175 39 42 196 221 309 353 l95 110 3568 1 3567 1 0 1950 0 1950 -3935
0 -3935 0 0 -2362z m1070 1122 l0 -490 -182 2 -183 3 -3 488 -2 487 185 0 185
0 0 -490z m1660 180 l0 -310 -177 2 -178 3 -3 123 -3 122 -489 0 -490 0 0 180
0 180 223 3 c122 1 423 3 670 5 l447 2 0 -310z m-2 -1372 l2 -728 -174 0 -174
0 -3 33 c-2 17 -4 265 -4 549 l0 518 -490 2 -490 3 -3 165 c-1 90 0 170 2 177
4 11 133 13 668 11 l663 -3 3 -727z m909 587 c28 -77 52 -146 52 -152 1 -7
-10 -13 -22 -13 -19 0 -26 8 -36 40 l-12 41 -61 -3 c-60 -3 -62 -4 -73 -38 -8
-24 -19 -36 -33 -38 -12 -2 -22 2 -22 9 0 13 86 252 101 281 6 12 19 18 32 16
18 -2 31 -27 74 -143z m253 125 c0 -17 -7 -20 -45 -20 l-45 0 0 -135 0 -135
-25 0 -25 0 0 135 0 135 -45 0 c-31 0 -45 4 -45 13 0 24 12 27 122 27 101 0
108 -1 108 -20z m88 -138 l3 -152 -26 0 -25 0 0 148 c0 82 3 152 7 156 4 4 14
5 23 4 13 -3 15 -27 18 -156z m203 148 c25 -14 27 -56 2 -45 -10 5 -32 10 -50
13 -25 3 -34 -1 -43 -18 -14 -26 5 -52 55 -77 52 -27 75 -54 75 -90 0 -68 -81
-110 -153 -79 -26 10 -37 21 -37 35 0 25 -2 25 44 6 46 -19 84 -11 92 21 7 29
-8 49 -50 71 -55 28 -76 53 -76 94 0 29 6 42 26 58 29 23 83 28 115 11z
m-3111 -725 l0 -365 485 0 485 0 0 -180 0 -180 -665 0 -665 0 -2 541 c-2 297
-1 543 1 545 2 2 85 4 183 4 l178 0 0 -365z m2565 181 c24 -10 35 -22 35 -35
0 -24 -6 -25 -40 -6 -52 30 -126 10 -148 -40 -7 -14 -12 -46 -12 -70 0 -35 6
-51 28 -75 26 -28 48 -35 100 -32 19 2 22 7 22 47 0 45 0 45 -35 45 -29 0 -35
4 -35 20 0 19 5 21 58 18 l57 -3 0 -75 0 -75 -40 -13 c-83 -28 -171 11 -195
84 -16 48 -8 129 17 162 41 56 120 76 188 48z m275 -6 c0 -18 -7 -20 -60 -20
l-60 0 0 -44 0 -45 53 -3 c38 -2 52 -7 52 -18 0 -11 -14 -16 -52 -18 l-53 -3
0 -50 0 -49 60 0 c53 0 60 -2 60 -20 0 -18 -7 -20 -85 -20 l-85 0 0 148 c0 82
3 152 7 155 3 4 42 7 85 7 71 0 78 -2 78 -20z m143 -17 c13 -21 41 -72 63
-113 l39 -75 5 110 c5 102 7 110 25 110 19 0 20 -8 23 -153 l3 -153 -32 3
c-30 3 -36 11 -95 123 l-64 120 0 -122 0 -123 -25 0 -25 0 0 143 c0 98 4 147
12 155 22 22 47 13 71 -25z m405 15 c3 -16 -5 -18 -62 -18 l-66 0 0 -45 0 -45
55 0 c48 0 55 -2 55 -20 0 -18 -7 -20 -55 -20 l-55 0 0 -50 0 -49 62 -3 c51
-2 63 -6 66 -21 3 -16 -4 -18 -85 -15 l-88 3 -3 139 c-2 95 1 143 9 153 9 10
32 13 88 11 63 -3 76 -6 79 -20z m229 -13 c29 -33 29 -67 0 -100 l-23 -27 33
-66 c18 -37 32 -71 33 -75 0 -5 -12 -7 -26 -5 -21 2 -30 13 -46 53 -26 65 -35
75 -69 75 -29 0 -29 0 -29 -65 0 -58 -2 -65 -20 -65 -19 0 -20 7 -20 148 0 82
3 152 8 156 4 5 36 6 72 3 54 -4 68 -9 87 -32z m220 23 c10 -14 103 -273 103
-289 0 -5 -9 -9 -20 -9 -14 0 -25 12 -36 40 l-17 41 -60 -3 c-59 -3 -61 -4
-72 -38 -8 -24 -19 -36 -33 -38 -12 -2 -22 1 -22 6 0 11 97 278 106 293 8 13
40 11 51 -3z m306 -2 c8 -21 -2 -26 -50 -26 l-43 0 0 -135 c0 -128 -1 -135
-20 -135 -18 0 -20 8 -22 133 l-3 132 -47 3 c-45 3 -60 16 -41 35 3 4 55 7
114 7 82 0 108 -3 112 -14z m228 -9 c74 -50 79 -201 8 -261 -60 -51 -163 -42
-199 16 -54 89 -25 226 54 258 41 17 102 11 137 -13z m254 8 c56 -23 69 -90
25 -130 -17 -15 -17 -20 -5 -39 7 -11 23 -45 34 -74 l21 -53 -27 3 c-22 2 -31
11 -43 46 -21 56 -44 82 -75 82 -24 0 -25 -2 -25 -65 0 -58 -2 -65 -20 -65
-19 0 -20 7 -20 148 0 82 3 152 7 155 12 12 93 7 128 -8z"/>
        <path d="M4296 5463 c-10 -32 -21 -64 -23 -70 -4 -9 8 -13 41 -13 25 0 46 4
46 8 0 10 -41 132 -44 132 -1 0 -10 -26 -20 -57z"/>
        <path d="M5327 4993 c-4 -3 -7 -26 -7 -50 0 -42 1 -43 33 -43 43 0 72 29 63
63 -7 30 -69 50 -89 30z"/>
        <path d="M5616 4918 c-10 -29 -21 -59 -23 -65 -4 -9 9 -13 45 -13 l50 0 -21
65 c-12 36 -24 65 -27 65 -3 0 -14 -24 -24 -52z"/>
        <path d="M6077 4989 c-42 -25 -58 -112 -32 -174 26 -64 109 -71 146 -12 31 49
22 142 -15 174 -29 24 -69 29 -99 12z"/>
        <path d="M6360 4950 l0 -50 33 0 c36 0 67 25 67 53 0 22 -38 47 -72 47 -27 0
-28 -2 -28 -50z"/>
    </g>&lt;/defs&gt;
</svg>