<?xml version="1.0" standalone="no"?>
<!DOCTYPE svg PUBLIC "-//W3C//DTD SVG 20010904//EN"
 "http://www.w3.org/TR/2001/REC-SVG-20010904/DTD/svg10.dtd">
<svg version="1.0" xmlns="http://www.w3.org/2000/svg"
 width="346.000000pt" height="346.000000pt" viewBox="0 0 346.000000 346.000000"
 preserveAspectRatio="xMidYMid meet">
<metadata>
Created by potrace 1.14, written by Peter Selinger 2001-2017
</metadata>
<g transform="translate(0.000000,346.000000) scale(0.100000,-0.100000)"
fill="#000000" stroke="none">
<path d="M1545 3449 c-579 -60 -1100 -423 -1361 -948 -425 -856 -79 -1891 775
-2317 298 -148 629 -208 949 -173 594 65 1105 419 1368 948 425 856 79 1891
-775 2317 -298 148 -626 207 -956 173z m-485 -1078 c0 -258 3 -476 6 -485 5
-14 -14 -16 -180 -16 l-186 0 0 485 0 485 180 0 180 0 0 -469z m1655 159 l0
-305 -170 0 -170 0 -3 123 -3 122 -489 0 -490 0 0 180 0 180 573 3 c314 1 613
2 662 2 l90 0 0 -305z m5 -1370 l0 -720 -175 0 -175 0 2 545 3 545 -490 2
-490 3 -3 173 -2 172 665 0 665 0 0 -720z m-1662 -7 l2 -363 485 0 485 0 0
-180 0 -180 -660 0 -660 0 0 158 c0 86 -3 324 -7 528 -3 204 -3 379 0 388 6
15 26 16 179 14 l173 -3 3 -362z"/>
</g>
</svg>
